# xmcd
#
# Track frame offsets:
#	150
#	5478
#	58402
#	104378
#	128555
#	145153
#	184709
#	201745
#	218216
#	259799
#
# Disc length: 3603 seconds
#
# Revision: 0
# Processed by: cddbd v1.4PL0 Copyright (c) Steve Scherf et al.
# Submitted via: dBpowerAMP V4.0
#
DISCID=9a0e110a
DTITLE=Prince - One Nite Not So Alone cd5
DYEAR=1900
DGENRE=
TTITLE0=Speech
TTITLE1=Joy In Repetition
TTITLE2=Talkin' Loud and Sayin' Nothing
TTITLE3=Pass The Peas
TTITLE4=George Clinton Jam
TTITLE5=La Di Da Di
TTITLE6=Dance To The Music
TTITLE7=Alphabet St
TTITLE8=The Jam
TTITLE9=If U Want Me 2 Stay
EXTD=
EXTT0=
EXTT1=
EXTT2=
EXTT3=
EXTT4=
EXTT5=
EXTT6=
EXTT7=
EXTT8=
EXTT9=
PLAYORDER=
